<svg xmlns="http://www.w3.org/2000/svg" viewBox="0 0 48 48" fill="none">
  <defs>
    <linearGradient id="colorGrad" x1="0%" y1="0%" x2="100%" y2="100%">
      <stop offset="0%" style="stop-color:#10b981"/>
      <stop offset="100%" style="stop-color:#06d6a0"/>
    </linearGradient>
  </defs>
  <!-- Palette Base -->
  <path d="M24 4C12.954 4 4 12.954 4 24s8.954 20 20 20c2.21 0 4-1.79 4-4 0-1.04-.39-1.99-1.03-2.71-.63-.7-1.02-1.62-1.02-2.64 0-2.21 1.79-4 4-4h4.72c6.04 0 10.94-4.9 10.94-10.94C45.61 12.11 35.86 4 24 4z" fill="#161b22" stroke="url(#colorGrad)" stroke-width="2"/>
  <!-- Color Dots -->
  <circle cx="14" cy="20" r="4" fill="#ef4444"/>
  <circle cx="20" cy="12" r="4" fill="#10b981"/>
  <circle cx="30" cy="12" r="4" fill="#8b5cf6"/>
  <circle cx="36" cy="20" r="4" fill="#f59e0b"/>
  <!-- RGB Bars -->
  <rect x="10" y="32" width="8" height="3" rx="1.5" fill="#ef4444" opacity="0.8"/>
  <rect x="20" y="32" width="8" height="3" rx="1.5" fill="#10b981" opacity="0.8"/>
  <rect x="30" y="32" width="8" height="3" rx="1.5" fill="#3b82f6" opacity="0.8"/>
</svg>
