<svg xmlns="http://www.w3.org/2000/svg" viewBox="0 0 48 48" fill="none">
  <defs>
    <linearGradient id="tattooGrad" x1="0%" y1="0%" x2="100%" y2="100%">
      <stop offset="0%" style="stop-color:#10b981"/>
      <stop offset="100%" style="stop-color:#06d6a0"/>
    </linearGradient>
  </defs>
  <!-- Body silhouette -->
  <ellipse cx="24" cy="14" rx="8" ry="9" fill="#161b22" stroke="url(#tattooGrad)" stroke-width="2"/>
  <path d="M12 44V28a12 12 0 0124 0v16" fill="none" stroke="url(#tattooGrad)" stroke-width="2"/>
  <!-- Tattoo needle -->
  <path d="M34 8l8-4" stroke="url(#tattooGrad)" stroke-width="2" stroke-linecap="round"/>
  <path d="M38 6l4 4-8 8-4-4 8-8z" fill="url(#tattooGrad)"/>
  <circle cx="32" cy="16" r="1" fill="#fff"/>
  <!-- Tattoo design on body -->
  <path d="M20 30c2-2 4-2 6 0s4 2 6 0" stroke="url(#tattooGrad)" stroke-width="1.5" stroke-linecap="round" fill="none"/>
  <path d="M22 36c1-1 2-1 3 0s2 1 3 0" stroke="url(#tattooGrad)" stroke-width="1.5" stroke-linecap="round" fill="none"/>
  <!-- Skull accent -->
  <circle cx="24" cy="24" r="3" fill="none" stroke="url(#tattooGrad)" stroke-width="1"/>
  <circle cx="23" cy="23.5" r="0.5" fill="url(#tattooGrad)"/>
  <circle cx="25" cy="23.5" r="0.5" fill="url(#tattooGrad)"/>
</svg>
