<svg xmlns="http://www.w3.org/2000/svg" viewBox="0 0 48 48" fill="none">
  <defs>
    <linearGradient id="toolGrad" x1="0%" y1="0%" x2="100%" y2="100%">
      <stop offset="0%" style="stop-color:#10b981"/>
      <stop offset="100%" style="stop-color:#06d6a0"/>
    </linearGradient>
  </defs>
  <!-- Wrench -->
  <path d="M10 38l8-8-2-2-8 8a2.83 2.83 0 004 4l-2-2z" fill="url(#toolGrad)"/>
  <path d="M18 30l4-4c-1-3 0-6 3-8 2-2 5-2 7-1l-4 4 2 2 4-4c1 2 1 5-1 7-2 3-5 4-8 3l-4 4-3-3z" fill="url(#toolGrad)"/>
  <!-- Gear -->
  <circle cx="34" cy="32" r="8" fill="#161b22" stroke="url(#toolGrad)" stroke-width="2"/>
  <circle cx="34" cy="32" r="3" fill="url(#toolGrad)"/>
  <!-- Gear teeth -->
  <rect x="32" y="22" width="4" height="4" fill="url(#toolGrad)"/>
  <rect x="32" y="38" width="4" height="4" fill="url(#toolGrad)"/>
  <rect x="24" y="30" width="4" height="4" fill="url(#toolGrad)"/>
  <rect x="40" y="30" width="4" height="4" fill="url(#toolGrad)"/>
  <!-- Speed lines -->
  <path d="M6 14h8M6 18h6M6 22h4" stroke="url(#toolGrad)" stroke-width="2" stroke-linecap="round" opacity="0.6"/>
</svg>
