<svg xmlns="http://www.w3.org/2000/svg" viewBox="0 0 1200 630">
  <defs>
    <linearGradient id="logoG" x1="0%" y1="0%" x2="100%" y2="100%">
      <stop offset="0%" stop-color="#10b981"/>
      <stop offset="100%" stop-color="#34d399"/>
    </linearGradient>
    <radialGradient id="bgG" cx="50%" cy="50%" r="60%">
      <stop offset="0%" stop-color="#10b981" stop-opacity="0.1"/>
      <stop offset="100%" stop-color="#10b981" stop-opacity="0"/>
    </radialGradient>
  </defs>
  <rect width="100%" height="100%" fill="#0d1117"/>
  <ellipse cx="600" cy="315" rx="500" ry="350" fill="url(#bgG)"/>
  <g transform="translate(520, 180)">
    <ellipse cx="30" cy="25" rx="12" ry="35" fill="url(#logoG)" transform="rotate(-12 30 25)"/>
    <ellipse cx="70" cy="25" rx="12" ry="35" fill="url(#logoG)" transform="rotate(12 70 25)"/>
    <circle cx="50" cy="65" r="35" fill="url(#logoG)"/>
    <circle cx="40" cy="58" r="6" fill="#0d1117"/>
    <circle cx="60" cy="58" r="6" fill="#0d1117"/>
    <ellipse cx="50" cy="72" rx="5" ry="3" fill="#0d1117"/>
  </g>
  <text x="600" y="360" text-anchor="middle" font-family="Inter, system-ui, sans-serif" font-size="56" font-weight="700" fill="#f0f6fc">BunnyScript</text>
  <text x="600" y="410" text-anchor="middle" font-family="Inter, system-ui, sans-serif" font-size="22" fill="#8b949e">Lua Script for Cherax</text>
  <g transform="translate(470, 450)">
    <rect width="80" height="28" rx="14" fill="#21262d"/>
    <text x="40" y="19" text-anchor="middle" font-family="Inter, sans-serif" font-size="12" font-weight="500" fill="#10b981">GTA V</text>
  </g>
  <g transform="translate(560, 450)">
    <rect width="80" height="28" rx="14" fill="#21262d"/>
    <text x="40" y="19" text-anchor="middle" font-family="Inter, sans-serif" font-size="12" font-weight="500" fill="#10b981">Cherax</text>
  </g>
  <g transform="translate(650, 450)">
    <rect width="80" height="28" rx="14" fill="#21262d"/>
    <text x="40" y="19" text-anchor="middle" font-family="Inter, sans-serif" font-size="12" font-weight="500" fill="#10b981">Free</text>
  </g>
</svg>
